<svg fill="#000000" xmlns="http://www.w3.org/2000/svg"  viewBox="0 0 24 24" width="480px" height="480px"><path d="M 7 1 L 7 3 L 9 3 L 9 1 L 7 1 z M 11 1 L 11 3 L 13 3 L 13 1 L 11 1 z M 15 1 L 15 3 L 17 3 L 17 1 L 15 1 z M 7 5 C 5.9069372 5 5 5.9069372 5 7 L 5 17 C 5 18.093063 5.9069372 19 7 19 L 17 19 C 18.093063 19 19 18.093063 19 17 L 19 7 C 19 5.9069372 18.093063 5 17 5 L 7 5 z M 1 7 L 1 9 L 3 9 L 3 7 L 1 7 z M 21 7 L 21 9 L 23 9 L 23 7 L 21 7 z M 10 10 L 14 10 L 14 14 L 10 14 L 10 10 z M 1 11 L 1 13 L 3 13 L 3 11 L 1 11 z M 21 11 L 21 13 L 23 13 L 23 11 L 21 11 z M 1 15 L 1 17 L 3 17 L 3 15 L 1 15 z M 21 15 L 21 17 L 23 17 L 23 15 L 21 15 z M 7 21 L 7 23 L 9 23 L 9 21 L 7 21 z M 11 21 L 11 23 L 13 23 L 13 21 L 11 21 z M 15 21 L 15 23 L 17 23 L 17 21 L 15 21 z"/></svg>