<svg fill="#000000" xmlns="http://www.w3.org/2000/svg"  viewBox="0 0 24 24" width="480px" height="480px"><path d="M 10 3 C 9.4777778 3 8.9453899 3.1913289 8.5683594 3.5683594 C 8.1913289 3.9453899 8 4.4777778 8 5 L 8 6 L 5 6 C 3.3545455 6 2 7.3545455 2 9 L 2 14 L 2 19 C 2 20.1 2.9 21 4 21 L 20 21 C 21.1 21 22 20.1 22 19 L 22 14 L 22 9 C 22 7.3545455 20.645455 6 19 6 L 16 6 L 16 5 C 16 4.4777778 15.808671 3.9453899 15.431641 3.5683594 C 15.05461 3.1913289 14.522222 3 14 3 L 10 3 z M 10 5 L 14 5 L 14 6 L 10 6 L 10 5 z M 5 8 L 19 8 C 19.554545 8 20 8.4454545 20 9 L 20 14 C 20 14.554545 19.554545 15 19 15 L 5 15 C 4.4454545 15 4 14.554545 4 14 L 4 9 C 4 8.4454545 4.4454545 8 5 8 z M 12 12 A 1 1 0 0 0 12 14 A 1 1 0 0 0 12 12 z"/></svg>